<?xml version="1.0" encoding="UTF-8"?>
<svg id="Logo" xmlns="http://www.w3.org/2000/svg" version="1.1" viewBox="0 0 170.075501 90.747703">
  <!-- Generator: Adobe Illustrator 30.1.0, SVG Export Plug-In . SVG Version: 2.1.1 Build 136)  -->
  <defs>
    <style>
      .st0 {
        fill: #fff;
      }
    </style>
  </defs>
  <polygon id="Balken" class="st0" points="0 90.747703 104.490297 90.747703 105.5118 84.731103 1.0132 84.731103 0 90.747703"/>
  <path id="Blume" class="st0" d="M170.074295,38.484003c-.0342-.2275-.6084-.4326-.9903-.749-1.3037-1.0869-5.9629-5.6719-15.1308-5.375-1.1602.0371-2.2188.1465-3.1827.3115,1.9532-.6338,2.9639-1.0127,3.5528-1.248.7099-.2803,5.3896-1.8848,7.9072-10.1045.2148-.7032.822304-2.3975.6719-2.5244-.1875-.1592-1.7617.122-3.351596,1.0908-1.595704.9687-6.955104,1.8144-7.591804,1.917-.373.0595-1.947196-.1758-4.2988,1.0595,2.6494-2.7216,5.4609-6.5908,6.2158-12.0175.3604-2.6045.208-3.6661.0967-3.6592-.1582.0117-.2461.0127-.4395.0713-.5898.1728-1.189396.6728-3.1377,1.9756-1.9521,1.3037-4.0185,2.748-4.0185,2.748,0,0,.707-7.089797.4863-7.2549-.2148-.160097-4.2402-.121097-10.4189,6.7588,0,0,.7021-5.8935-.4561-8.117197,0,0-.3222-1.6084-.5742-2.4482-.125-.4219-.4551-.8662-.5098-.8281-.0644.0449-.6113.134697-1.4892,1.1435-1.362296,1.5606-7.697296,3.4697-8.7471,11.665997-.793-3.3066-2.4766-7.730397-6.6357-9.969697C115.683597.630506,114.640697-.055994,114.519597.003506c-.1055.054697-.0606,1.0762-.417,3.377-.4014,2.581097-.759797,3.397497-.759797,3.397497,0,0-4.358403-3.833097-4.469703-3.944397-.2051-.2021-2.862297,8.210997-2.082,12.411197,0,0-1.379-1.0674-3.8887-2.3575-2.849597-1.4629-7.642597-1.7148-7.6094-1.4902.0576.3779,4.0449,8.1699,5.7236,10.9062,0,0-10.7431-1.8457-10.5537-1.1748.0606.2217.3184.6436.7422,2.4366,0,0-4.2158-.0918-4.1601.2578.0586.3887,3.1953,5.5722,3.4355,5.8554,0,0-3.261697.6299-3.9492.668-.4668.0244,2.1787,7.3301,9.4297,9.1543,1.0293.2588,2.0215.4483,2.9746.5879.8213.0781,1.8281.1758,2.699203.2578,4.314497.1719,7.148397-.9365,6.658197-2.5342,0,0-.1396-.5918-4.5664-2.207,0,0,.125-.5283.4189-.5996.2969-.0713,4.8995,1.6133,4.572303,1.3447-.327103-.2744-2.010703-2.1455-1.708-2.1299.302697.0137,2.464797.9288,3.181597.2559.6856-.6426,1.1163-1.8242,1.568403-2.082.451197-.2569-1.203103-1.7881.976597-1.084,0,0,1.4785-.8301.314403-2.1856-1.164-1.3603-4.855503-5.7265,1.167-.457,1.439497,1.2627,5.043-2.582,4.747097-4.6728,0,0,1.4394,1.4511,1.7441,1.6064.3057.1562,2.3213.3955,2.7793-.3027.211-.3203-.7392-3.2969-.1289-4.6055,0,0,.2568-.0225.5.2539.2422.2803.2695,3.3848,1.3633,3.9746,0,0,1.2285-.7197,1.4355-1.2549.211-.541-.3339,3.3535,3.351604,1.6739,0,0,1.793896-1.5938,2.308596-1.6407.5117-.0488-.3867,1.8907.068404,2.5821.455.6914,1.963796,1.1543,2.443296.29.4824-.8643,2.7813-2.5918,2.96-2.5225.1806.0713-1.169,3.67-1.3242,4.0235-.2237.5117-.3838,1.2734-.3838,1.2734,0,0,.175704,1.0049,1.4316,1.2822,0,0,2.371104-1.3837,4.8379-3.1826-.259796.3125-.5195.6338-.7832.9805,0,0-3.1914,3.2764-3.1924,3.7519.0049.4747,1.0947,1.5391,1.9893.9356.892504-.5986,3.0547-1.4941,3.2422-1.3379.1855.1563.5302.5986.082.8584-.4512.2559-2.9639,1.5703-2.9639,1.5703,0,0,2.8701.1953,6.3799-.5146-3.7998,1.542-5.1152,3.8886-5.083,4.1113.114304.7529,6.0176-.7773,6.1787-.4053.8477,1.9238-1.8711.7354-3.0625.9356-1.1904.1963-4.251.2656-1.4336,2.6787,0,0,.5215.04-.8691.8594-1.3916.8222,3.0976,1.3076,3.630804,1.9043.531296.5986-4.452104-.0567-4.354504,1.4433.0967,1.502-.8564.5547,2.4541,4.0889,0,0-1.9882-.4629-2.2207-.1826-.2334.2822,4.3536,4.0839,4.3243,5.165,0,0-.9317.6475-1.3301.0811-.3965-.5674-3.169-3.6338-3.6192-3.7237-.337896-.0674-.9853.0899-1.2851.6846,0,0,1.2119,2.8223.833,2.9023-.3809.0791-2.2744-1.2568-2.2744-1.2568,0,0-1.2442.5488-.836,1.6758.4063,1.125,3.7852,4.956,3.5918,5.1914,0,0-.2871.6308-.7226.5859-.435596-.0478-2.7735-4.2763-3.349596-4.4385-.577204-.1621.671796,3.9512.671796,3.9512,0,0-2.1093-2.2197-2.6709-2.6836-.5595-.4648-.6435.4912-.6435.4912l.6103,4.6934s-6.5683-9.793-4.9619,1.8848c0,0-.1523.6621-.3691.6396-.2178-.0215-1.6133-3.8642-1.4531-4.9141.1621-1.0507-1.1524,2.9102-1.1524,2.9102,0,0-2.0596-8.1807-6.326196.2061,0,0-.296803-3.169-.953103-3.711-.6523-.5429-1.170897-.7334-1.3613-.7383-.1387-.0009-1.0029-.0341-1.7773,1.4297-3.0059,3.8994-4.9356,8.9151-5.4786,13.253-.094697,3.0136.2461,8.4423.0684,9.6064-.1055.6807.0508.7539.1572.9785.0342.0703,1.1572-.8574,1.514703-1.0947.529297-.3516,6.014597-7.7275,6.359297-9.5723,0,0,2.9258,12.8506,3.918,14.2276.2158.2968.3945.6289.541.3974.293-.458.7305-1.6582,1.0586-1.7578.4209-.126,1.6582-.2812,2.3076-2.1142.649504-1.8331,1.8194-3.6231,2.3672-8.379,0,0,6.2178,7.9288,7.0264,8.6651.3213.2949,2.0098-2.5156,2.753904-7.0313.746096-4.5166-.857404-10.5839-1.871104-10.791,0,0-.421896-.666.7568-.2441.669.2412,3.2569,4.7324,9.2256,8.1416,1.0039.5752,3.139704.5849,3.1524.5459.4804-1.3389-4.2032-13.5957-4.2032-13.5957,0,0,.1153-.1397,1.0586.247.9414.3868,9.8848,6.17,15.3106,3.46,1.1006-.5488,1.1641-.666,1.1641-.666.621-2.6699-4.1573-7.7217-7.091795-10.0176,0,0,7.707-.3125,8.888595-2.3555,0,0,1.4209-.5126,2.1543-1.5234.127-.1787-.8301-1.9365-1.9414-2.709-2.9101-2.0185-3.541-2.7783-3.541-2.7783,0,0,.814504-.9834,1.9902-1.3516,1.1739-.3681,4.9727-2.7119,3.958-3.8671,0,0,1.2237-1.0616,1.1788-1.3399"/>
  <g id="Typo">
    <path class="st0" d="M99.738297,79.417603l.627-3.7617c.0957-.5781.1699-1.2529.2197-2.0225.051803-.7705.0801-1.6738.0869-2.7119.0527.458.127.9424.2168,1.4463.0918.5059.1973,1.0488.3184,1.6279l1.177703,5.4219h4.027297l2.4502-14.7373h-4.0283l-.5527,3.3135c-.1006.6172-.1856,1.3808-.2578,2.291-.0723.9101-.136697,2.0039-.1953,3.2842l-.2168-1.2998c-.085-.5137-.1661-.9707-.2412-1.3643-.0772-.3945-.1456-.7451-.2061-1.0508l-1.2051-5.1738h-3.7969l-2.4511,14.7373h4.0273Z"/>
    <polygon class="st0" points="93.976597 79.417603 94.562497 75.894203 90.972697 75.894203 91.319397 73.819903 94.537097 73.819903 95.123097 70.294603 91.904297 70.294603 92.252997 68.205703 95.840897 68.205703 96.4278 64.680303 88.658197 64.680303 86.207997 79.417603 93.976597 79.417603"/>
    <path class="st0" d="M77.607,79.417603l.6255-3.7617c.0966-.5781.1709-1.2529.2211-2.0225.0518-.7705.0801-1.6738.085-2.7119.0552.458.1294.9424.2202,1.4463.0904.5059.1953,1.0488.3164,1.6279l1.1763,5.4219h4.0283l2.451697-14.7373h-4.028797l-.5508,3.3135c-.1025.6172-.189,1.3808-.2622,2.291-.0698.9101-.1358,2.0039-.1944,3.2842l-.2138-1.2998c-.0874-.5137-.1675-.9707-.2437-1.3643-.0757-.3945-.145-.7451-.2051-1.0508l-1.206-5.1738h-3.7959l-2.4512,14.7373h4.0274Z"/>
    <path class="st0" d="M57.0762,69.426403c-.0898.542-.3247.9873-.7021,1.3379-.3804.3506-.8111.5244-1.292.5244h-.2808l.585-3.5117h.1508c1.2081,0,1.7217.5498,1.5391,1.6494M61.1983,69.596303c.2778-1.667-.1031-2.9521-1.1426-3.8574-.8188-.7051-2.1694-1.0586-4.0552-1.0586h-4.2793l-2.4516,14.7373h4.1591l.8584-5.1553.1324-.9726c.0385.2041.0713.3789.0976.5254.0259.1455.0415.2646.0464.3525l1.1919,5.25h4.522l-2.0899-6.126c1.711-.6826,2.7144-1.9131,3.0108-3.6953"/>
    <path class="st0" d="M42.793,73.997703h1.5454c-.0483.2871-.1274.5478-.2368.7822-.1089.2354-.2388.4336-.3897.5977-.1508.1621-.3232.29-.5185.3789-.1958.0918-.4048.1377-.624.1377-.5552,0-.9136-.2725-1.0772-.8184-.164-.5449-.1455-1.4189.0542-2.623.4707-2.8311,1.2808-4.2471,2.4307-4.2471.3276,0,.5776.1348.7495.4053.1724.2714.2495.6396.2324,1.1025l4.2852-1.4131c-.7012-2.4131-2.2754-3.6201-4.7207-3.6201-1.8448,0-3.4082.6641-4.6914,1.9902-1.2837,1.3282-2.1167,3.1436-2.5005,5.4483-.378,2.2734-.1475,4.0625.6928,5.3652.8472,1.2901,2.2042,1.9336,4.0684,1.9336,1.8975,0,3.4409-.6592,4.6304-1.9785,1.0893-1.21,1.8637-3.1924,2.3208-5.9453l.0991-.5918h-5.8345l-.5156,3.0957Z"/>
    <polygon class="st0" points="28.0591 79.417603 28.6455 75.894203 25.0562 75.894203 25.4009 73.819903 28.6192 73.819903 29.2051 70.294603 25.9873 70.294603 26.3345 68.205703 29.9239 68.205703 30.5108 64.680303 22.7403 64.680303 20.2891 79.417603 28.0591 79.417603"/>
    <polygon class="st0" points="20.8199 64.680303 16.6387 64.680303 14.188 79.417603 18.3687 79.417603 20.8199 64.680303"/>
    <path class="st0" d="M9.5743,72.208603c-.3975,2.3867-1.3501,3.6133-2.8594,3.6856l1.248-7.5049h.1314c.6469,0,1.1054.3428,1.3711,1.0303.269.6806.3047,1.6123.1089,2.789M13.8702,72.059203c.4121-2.4814-.0215-4.4131-1.3023-5.7949-.9746-1.0557-2.4946-1.584-4.5591-1.584h-3.6094l-2.4501,14.7373h3.9101c2.1572,0,3.8755-.5654,5.1533-1.6982,1.4986-1.3311,2.4507-3.2149,2.8575-5.6602"/>
    <path class="st0" d="M107.179697,52.100203c-.2148,1.2959-.4853,2.2471-.8105,2.8584-.3252.6094-.7246.9141-1.1992.9141-.877,0-1.0821-1.3945-.619197-4.1856.388697-2.3339,1.031297-3.5019,1.927797-3.5019.9003,0,1.1367,1.3037.7011,3.915M110.786197,46.641203c-.7373-1.3203-1.958-1.9814-3.6621-1.9814-1.6905,0-3.1436.6523-4.3536,1.9541-1.206,1.2978-1.9951,3.0605-2.3652,5.29-.3916,2.3604-.2041,4.1983.5674,5.5127.7754,1.3213,2.0439,1.9815,3.8008,1.9815,1.623,0,3.0254-.6533,4.207-1.9619,1.1787-1.3155,1.9551-3.087,2.3262-5.3106.3886-2.334.2129-4.1621-.5205-5.4844"/>
    <path class="st0" d="M95.289097,49.717403c-.207,1.2608-.7022,1.8906-1.4805,1.8906-.8193,0-1.123-.625-.9179-1.8711.2197-1.3212.7373-1.9814,1.5468-1.9814.7852,0,1.070303.6533.8516,1.9619M98.525397,46.104103c-.7695-.9638-1.914-1.4443-3.430597-1.4443-1.606503,0-2.983403.4834-4.134803,1.4512-1.158197.9775-1.8643,2.2334-2.1201,3.7627-.211,1.2714-.0254,2.3584.5605,3.2636.5957.8858,1.4248,1.3282,2.4883,1.3282.4297,0,.9424-.1387,1.5449-.4209-.1992.2314-.380797.4414-.5429.6367-.1641.1943-.3038.3701-.423897.5283l-3.173803,4.1885h4.4922l1.8379-2.5303c2.164-2.9687,3.387703-5.292,3.664-6.9678.2618-1.5664.0079-2.834-.7617-3.7959"/>
    <path class="st0" d="M76.1704,59.398103c1.4244,0,2.6758-.4532,3.7554-1.3614,1.0811-.9091,1.7368-2.0625,1.9688-3.4619.1381-.8232.0644-1.541-.2212-2.1543-.2798-.6132-.8125-1.2119-1.5972-1.7959l-.5864-.4502c-.5064-.375-.7266-.7519-.6636-1.1328.0396-.2334.1782-.4326.4209-.5986.2344-.1719.5137-.2578.834-.2578.4224,0,.8252.1465,1.2104.4346.3863.29.7085.6865.9649,1.1884l.7368-4.4179c-.9297-.4864-1.8906-.7305-2.8867-.7305-1.1162,0-2.1196.3076-3.0113.9209-.3227.2148-.6171.4629-.8852.7422-.2671.2803-.5117.5888-.7354.9258-.4545.7255-.7373,1.4189-.8476,2.083-.0635.3867-.0781.7549-.0435,1.1064.0347.3496.1265.6885.2725,1.0156.1455.3311.353.6495.6226.96.269.3105.604.6221,1.0063.9365l.6016.4864c.4336.3632.6201.7343.5561,1.1142-.0444.2656-.1938.4854-.4497.6592-.2573.1767-.5654.2627-.9263.2627-.956,0-1.7558-.5342-2.3999-1.6035l-.7534,4.5302c1.0567.3985,2.0752.5987,3.0571.5987"/>
    <polygon class="st0" points="73.8736 44.659803 69.6929 44.659803 67.2422 59.398103 71.4234 59.398103 73.8736 44.659803"/>
    <path class="st0" d="M58.6426,59.398103l.626-3.7608c.0967-.58.1704-1.2558.2207-2.0244.0503-.7705.0791-1.6738.085-2.7119.0561.459.1279.9404.2187,1.4473.0908.5058.1963,1.0488.3184,1.6269l1.1757,5.4229h4.0279l2.4521-14.7383h-4.0288l-.5513,3.3135c-.1025.6162-.1884,1.3808-.2602,2.29-.0718.9111-.1362,2.0059-.1948,3.2861l-.2163-1.2988c-.086-.5166-.1661-.9707-.2432-1.3662-.0752-.3945-.1436-.7451-.2051-1.0498l-1.2046-5.1748h-3.7973l-2.4497,14.7383h4.0268Z"/>
    <path class="st0" d="M50.2691,52.188103c-.3975,2.3867-1.3506,3.6143-2.8589,3.6846l1.2475-7.5049h.1304c.6489,0,1.1055.3438,1.3726,1.0322.2676.6817.3027,1.6094.1084,2.7881M54.5645,52.040703c.4126-2.4844-.022-4.4151-1.3027-5.7959-.9737-1.0557-2.4927-1.585-4.5591-1.585h-3.6079l-2.4517,14.7383h3.9106c2.1573,0,3.877-.5674,5.1543-1.6983,1.4976-1.331,2.4483-3.2177,2.8565-5.6591"/>
    <path class="st0" d="M34.044,59.398103l.625-3.7608c.0967-.58.1699-1.2558.2212-2.0244.0503-.7705.0791-1.6738.0849-2.7119.0547.459.128.9404.2188,1.4473.0908.5058.1963,1.0488.3183,1.6269l1.1758,5.4229h4.0274l2.4516-14.7383h-4.0278l-.5523,3.3135c-.1015.6162-.1894,1.3808-.2597,2.29-.0713.9111-.1367,2.0059-.1953,3.2861l-.2154-1.2988c-.0854-.5166-.167-.9707-.2426-1.3662-.0757-.3945-.1446-.7451-.2066-1.0498l-1.2036-5.1748h-3.7978l-2.4512,14.7383h4.0293Z"/>
    <path class="st0" d="M13.149,49.005503c-.0679.4004-.2647.7119-.5918.9336-.3291.2226-.7437.333-1.2447.333h-.2802l.4213-2.5273c.1006-.0069.1866-.0118.2574-.0147.0698-.0039.1294-.0049.1762-.0049.9815,0,1.4034.4258,1.2618,1.2803M10.8472,53.369803c.542,0,.9478.1279,1.2148.3837.2681.2559.3648.6104.2896,1.0625-.0757.4532-.2915.8145-.6455,1.0831-.3569.2705-.7944.4033-1.3164.4033-.0396,0-.0884-.001-.1494-.0039-.0596-.0039-.1289-.0088-.209-.0157l.4853-2.913h.3306ZM17.3252,48.840503c.2066-1.2393-.0698-2.252-.8281-3.0372-.749-.7626-2.0317-1.1435-3.8501-1.1435h-4.8623l-2.4507,14.7383h5.8545c1.397,0,2.5869-.3858,3.5723-1.1651.9897-.7695,1.5903-1.7861,1.8012-3.0527.1675-1.0068.0391-1.7764-.3828-2.3115-.4228-.5342-1.1684-.878-2.2392-1.0303,1.9497-.1533,3.0781-1.1514,3.3852-2.998"/>
    <path class="st0" d="M68.1939,74.295503c-.1104.6612-.2642,1.1231-.4614,1.3838-.1949.25-.4932.3721-.8941.3721-.3872,0-.6416-.1328-.7602-.4004-.1202-.2666-.126-.7217-.0191-1.3652l1.582-9.5088h-4.1801l-1.6407,9.8623c-.3144,1.8906.0718,3.2646,1.1583,4.124.8569.6748,2.0009,1.0127,3.4316,1.0127,1.2622,0,2.3857-.3076,3.3691-.916.7305-.459,1.2842-.9727,1.6602-1.5371.3765-.543.6377-1.249.7832-2.1211l1.7334-10.4248h-4.1797l-1.5825,9.5185Z"/>
    <path class="st0" d="M68.2539,60.919603c-.2544-.2979-.6045-.4444-1.0488-.4444-.438,0-.8369.1465-1.1977.4444-.3609.2959-.5757.6552-.646,1.0791-.0694.417.0268.7734.288,1.0693.2623.2969.6119.4453,1.0508.4453.4312,0,.8272-.1484,1.1875-.4453.3672-.3027.586-.6582.6538-1.0693.0708-.4239-.0244-.7832-.2876-1.0791"/>
    <path class="st0" d="M72.6978,60.928303c-.2676-.3017-.6201-.4531-1.0576-.4531-.4444,0-.8467.1465-1.209.4444-.3589.2959-.5742.6523-.6436,1.0703-.0703.4228.0249.7822.2876,1.0781.2617.2969.6172.4453,1.0689.4453.4375,0,.8364-.1484,1.1972-.4453.3604-.2959.5743-.6465.6421-1.0518.0708-.4306-.0239-.792-.2856-1.0879"/>
    <path class="st0" d="M24.5874,54.175403c-.1098.6621-.2631,1.125-.4604,1.3848-.1958.249-.4942.3721-.8941.3721-.3886,0-.6416-.1338-.7602-.4004-.1206-.2666-.1265-.7217-.0195-1.3653l1.5815-9.5107h-4.1792l-1.6421,9.8633c-.3135,1.8916.0723,3.2656,1.1592,4.123.8569.6777,2,1.0147,3.4316,1.0147,1.2622,0,2.3858-.3067,3.3692-.917.7314-.458,1.2846-.9717,1.6601-1.5371.3775-.542.6377-1.2481.7827-2.1202l1.7344-10.4267h-4.1806l-1.5826,9.5195Z"/>
    <path class="st0" d="M24.649,40.800403c-.2559-.2969-.6055-.4463-1.0503-.4463-.4375,0-.8369.1494-1.1978.4463-.3598.2959-.5752.6563-.6455,1.0781-.0698.418.0264.7745.2881,1.0694.2622.2978.6123.4463,1.0503.4463.4321,0,.8271-.1485,1.188-.4463.3676-.3018.5854-.6582.6543-1.0694.0698-.4218-.0259-.7822-.2871-1.0781"/>
    <path class="st0" d="M29.0909,40.809203c-.2666-.3027-.6192-.4551-1.0562-.4551-.4453,0-.8477.1494-1.2085.4463-.3608.2959-.5762.6514-.6435,1.0694-.0718.4238.0244.7841.2861,1.0791.2622.2968.6181.4453,1.0698.4453.4365,0,.8364-.1485,1.1968-.4453.3594-.295.5737-.6465.6416-1.0508.0713-.4307-.0239-.793-.2861-1.0889"/>
  </g>
</svg>