<?xml version="1.0" encoding="UTF-8" standalone="no"?>
<!-- Created with Inkscape (http://www.inkscape.org/) -->

<svg
   xmlns:dc="http://purl.org/dc/elements/1.1/"
   xmlns:cc="http://creativecommons.org/ns#"
   xmlns:rdf="http://www.w3.org/1999/02/22-rdf-syntax-ns#"
   xmlns:svg="http://www.w3.org/2000/svg"
   xmlns="http://www.w3.org/2000/svg"
   xmlns:sodipodi="http://sodipodi.sourceforge.net/DTD/sodipodi-0.dtd"
   xmlns:inkscape="http://www.inkscape.org/namespaces/inkscape"
   width="3000"
   height="1601.61"
   viewBox="0 0 3000.0001 1601.61"
   id="svg2"
   version="1.1"
   inkscape:version="0.92.5 (2060ec1f9f, 2020-04-08)"
   sodipodi:docname="logo-gruen.svg">
  <defs
     id="defs4">
    <style
       id="style4140"
       type="text/css"><![CDATA[
    .fil0 {fill:#47B5E7;fill-rule:nonzero}
    .fil2 {fill:#FEFEFE;fill-rule:nonzero}
    .fil1 {fill:#FFF225;fill-rule:nonzero}
   ]]></style>
    <style
       id="style4229"
       type="text/css"><![CDATA[
    .fil0 {fill:#FFF225;fill-rule:nonzero}
   ]]></style>
    <style
       id="style4249"
       type="text/css"><![CDATA[
    .fil0 {fill:#47B5E7;fill-rule:nonzero}
    .fil2 {fill:#FEFEFE;fill-rule:nonzero}
    .fil1 {fill:#FFF225;fill-rule:nonzero}
   ]]></style>
  </defs>
  <sodipodi:namedview
     id="base"
     pagecolor="#ffffff"
     bordercolor="#666666"
     borderopacity="1.0"
     inkscape:pageopacity="0.0"
     inkscape:pageshadow="2"
     inkscape:zoom="0.19576638"
     inkscape:cx="-30.333612"
     inkscape:cy="-507.81635"
     inkscape:document-units="px"
     inkscape:current-layer="Layer_x0020_1"
     showgrid="false"
     units="px"
     inkscape:window-width="1848"
     inkscape:window-height="1016"
     inkscape:window-x="1752"
     inkscape:window-y="27"
     inkscape:window-maximized="1" />
  <metadata
     id="metadata7">
    <rdf:RDF>
      <cc:Work
         rdf:about="">
        <dc:format>image/svg+xml</dc:format>
        <dc:type
           rdf:resource="http://purl.org/dc/dcmitype/StillImage" />
        <dc:title></dc:title>
      </cc:Work>
    </rdf:RDF>
  </metadata>
  <g
     inkscape:label="Ebene 1"
     inkscape:groupmode="layer"
     id="layer1"
     transform="translate(0,549.24781)">
    <g
       style="clip-rule:evenodd;fill-rule:evenodd;image-rendering:optimizeQuality;shape-rendering:geometricPrecision;text-rendering:geometricPrecision"
       id="g4306"
       transform="matrix(0.12701101,0,0,0.1270111,-26.037257,866.67196)">
      <g
         id="Layer_x0020_1">
        <metadata
           id="CorelCorpID_0Corel-Layer" />
        <g
           id="g61"
           transform="matrix(9.9999998,0,0,9.9999998,-1845,-13158)">
          <polygon
             style="fill:#47b5e7;fill-rule:nonzero"
             class="fil0"
             points="1656,1462 1670,1379 219,1379 205,1462 "
             id="polygon4253" />
          <path
             style="fill:#fff225;fill-rule:nonzero"
             inkscape:connector-curvature="0"
             class="fil1"
             d="m 2567,736 c 0,-3 -8,-6 -14,-10 -18,-15 -83,-79 -210,-75 -16,1 -31,2 -44,4 27,-9 41,-14 49,-17 10,-4 75,-26 110,-140 3,-10 11,-33 9,-35 -3,-2 -24,2 -47,15 -22,13 -97,25 -105,27 -5,1 -27,-2 -60,15 37,-38 76,-92 86,-167 5,-36 3,-51 1,-51 -2,0 -3,0 -6,1 -8,2 -17,9 -44,27 -27,18 -56,38 -56,38 0,0 10,-98 7,-101 -3,-2 -59,-2 -145,94 0,0 10,-82 -6,-113 0,0 -4,-22 -8,-34 -2,-6 -6,-12 -7,-12 -1,1 -9,2 -21,16 -19,22 -107,48 -121,162 -11,-46 -34,-107 -92,-138 -33,-32 -47,-41 -49,-41 -1,1 -1,15 -6,47 -6,36 -11,47 -11,47 0,0 -61,-53 -62,-55 -3,-3 -40,114 -29,172 0,0 -19,-15 -54,-33 -40,-20 -106,-24 -106,-21 1,5 56,113 80,151 0,0 -149,-26 -147,-16 1,3 4,9 10,34 0,0 -59,-1 -58,4 1,5 44,77 48,81 0,0 -45,9 -55,9 -6,0 30,102 131,127 14,4 28,6 41,8 11,1 25,2 37,4 60,2 99,-13 92,-35 0,0 -2,-8 -63,-31 0,0 2,-7 6,-8 4,-1 68,22 64,19 -5,-4 -28,-30 -24,-30 4,0 34,13 44,4 10,-9 16,-25 22,-29 6,-4 -17,-25 14,-15 0,0 21,-12 4,-30 -16,-19 -67,-80 16,-6 20,18 70,-36 66,-65 0,0 20,20 24,22 4,2 32,5 39,-4 3,-4 -10,-46 -2,-64 0,0 4,0 7,4 3,4 4,47 19,55 0,0 17,-10 20,-17 3,-8 -5,47 47,23 0,0 25,-22 32,-23 7,-1 -5,26 1,36 6,10 27,16 34,4 7,-12 39,-36 41,-35 3,1 -16,51 -18,56 -3,7 -5,18 -5,18 0,0 2,14 20,18 0,0 33,-19 67,-44 -4,4 -7,9 -11,14 0,0 -44,46 -44,52 0,7 15,21 28,13 12,-8 42,-21 45,-19 3,2 7,8 1,12 -6,4 -41,22 -41,22 0,0 40,3 89,-7 -53,21 -71,54 -71,57 2,10 84,-11 86,-6 12,27 -26,10 -43,13 -17,3 -59,4 -20,37 0,0 7,1 -12,12 -19,11 43,18 50,26 7,8 -62,-1 -60,20 1,21 -12,8 34,57 0,0 -28,-6 -31,-3 -3,4 60,57 60,72 0,0 -13,9 -18,1 -6,-8 -44,-50 -50,-52 -5,-1 -14,1 -18,10 0,0 17,39 12,40 -5,1 -32,-17 -32,-17 0,0 -17,8 -12,23 6,16 53,69 50,72 0,0 -4,9 -10,8 -6,-1 -39,-59 -47,-62 -8,-2 9,55 9,55 0,0 -29,-31 -37,-37 -8,-6 -9,7 -9,7 l 8,65 c 0,0 -91,-136 -69,26 0,0 -2,9 -5,9 -3,0 -22,-54 -20,-68 2,-15 -16,40 -16,40 0,0 -29,-114 -88,3 0,0 -4,-44 -13,-52 -9,-8 -16,-10 -19,-10 -2,0 -14,0 -25,20 -42,54 -69,124 -76,184 -1,42 3,117 1,133 -1,9 1,10 2,14 0,1 16,-12 21,-15 7,-5 84,-107 88,-133 0,0 41,178 54,198 3,4 5,9 8,6 4,-6 10,-23 15,-24 6,-2 23,-4 32,-29 9,-25 25,-50 33,-116 0,0 86,110 98,120 4,4 28,-35 38,-98 10,-63 -12,-147 -26,-150 0,0 -6,-9 11,-3 9,3 45,66 128,113 14,8 44,8 44,8 7,-19 -58,-189 -58,-189 0,0 2,-2 15,3 13,5 137,86 213,48 15,-8 16,-9 16,-9 9,-37 -58,-107 -99,-139 0,0 107,-4 123,-33 0,0 20,-7 30,-21 2,-2 -12,-27 -27,-38 -40,-28 -49,-39 -49,-39 0,0 11,-14 28,-19 16,-5 69,-38 55,-54 0,0 17,-15 16,-19 z"
             id="path4255" />
          <path
             style="fill:#46962b;fill-opacity:1;fill-rule:nonzero"
             inkscape:connector-curvature="0"
             class="fil2"
             d="m 1590,1305 9,-52 c 1,-8 2,-17 3,-28 1,-11 1,-23 1,-38 1,6 2,13 3,20 1,7 3,15 4,23 l 16,75 h 56 l 34,-205 h -56 l -8,46 c -1,9 -3,19 -4,32 -1,13 -2,28 -3,46 l -3,-18 c -1,-7 -2,-13 -3,-19 -1,-5 -2,-10 -3,-15 l -17,-72 h -53 l -34,205 h 56 z"
             id="path4257" />
          <polygon
             style="fill:#46962b;fill-opacity:1;fill-rule:nonzero"
             class="fil2"
             points="1518,1256 1468,1256 1473,1227 1518,1227 1526,1178 1481,1178 1486,1149 1536,1149 1544,1100 1436,1100 1402,1305 1510,1305 "
             id="polygon4259" />
          <path
             style="fill:#46962b;fill-opacity:1;fill-rule:nonzero"
             inkscape:connector-curvature="0"
             class="fil2"
             d="m 1283,1305 9,-52 c 1,-8 2,-17 3,-28 1,-11 1,-23 1,-38 1,6 2,13 3,20 1,7 3,15 4,23 l 16,75 h 56 l 34,-205 h -56 l -8,46 c -1,9 -3,19 -4,32 -1,13 -2,28 -3,46 l -3,-18 c -1,-7 -2,-13 -3,-19 -1,-5 -2,-10 -3,-15 l -17,-72 h -53 l -34,205 h 56 z"
             id="path4261" />
          <path
             style="fill:#46962b;fill-opacity:1;fill-rule:nonzero"
             inkscape:connector-curvature="0"
             class="fil2"
             d="m 1055,1168 c 4,-23 -1,-41 -16,-54 -11,-10 -30,-15 -56,-15 h -59 l -34,205 h 58 l 12,-72 2,-14 c 1,3 1,5 1,7 0,2 1,4 1,5 l 17,73 h 63 l -29,-85 c 24,-9 38,-27 42,-51 z m -57,-2 c -1,8 -5,14 -10,19 -5,5 -11,7 -18,7 h -4 l 8,-49 h 2 c 17,0 24,8 21,23 z"
             id="path4263" />
          <path
             style="fill:#46962b;fill-opacity:1;fill-rule:nonzero"
             inkscape:connector-curvature="0"
             class="fil2"
             d="m 799,1229 h 21 c -1,4 -2,8 -3,11 -2,3 -3,6 -5,8 -2,2 -4,4 -7,5 -3,1 -6,2 -9,2 -8,0 -13,-4 -15,-11 -2,-8 -2,-20 1,-36 7,-39 18,-59 34,-59 5,0 8,2 10,6 2,4 3,9 3,15 l 60,-20 c -10,-34 -32,-50 -66,-50 -26,0 -47,9 -65,28 -18,18 -29,44 -35,76 -5,32 -2,56 10,75 12,18 31,27 57,27 26,0 48,-9 64,-27 15,-17 26,-44 32,-83 l 1,-8 h -81 l -7,43 z"
             id="path4265" />
          <polygon
             style="fill:#46962b;fill-opacity:1;fill-rule:nonzero"
             class="fil2"
             points="603,1256 553,1256 558,1227 602,1227 610,1178 566,1178 570,1149 620,1149 628,1100 521,1100 487,1305 594,1305 "
             id="polygon4267" />
          <polygon
             style="fill:#46962b;fill-opacity:1;fill-rule:nonzero"
             class="fil2"
             points="436,1100 402,1305 460,1305 494,1100 "
             id="polygon4269" />
          <path
             style="fill:#46962b;fill-opacity:1;fill-rule:nonzero"
             inkscape:connector-curvature="0"
             class="fil2"
             d="m 397,1203 c 6,-34 0,-61 -18,-80 -14,-15 -35,-22 -63,-22 h -50 l -34,205 h 54 c 30,0 54,-8 72,-24 21,-18 34,-45 40,-79 z m -60,2 c -6,33 -19,50 -40,51 l 17,-104 h 2 c 9,0 15,5 19,14 4,9 4,22 2,39 z"
             id="path4271" />
          <path
             style="fill:#46962b;fill-opacity:1;fill-rule:nonzero"
             inkscape:connector-curvature="0"
             class="fil2"
             d="m 1743,850 c -10,-18 -27,-28 -51,-28 -23,0 -44,9 -60,27 -17,18 -28,43 -33,73 -5,33 -3,58 8,77 11,18 28,28 53,28 23,0 42,-9 58,-27 16,-18 27,-43 32,-74 5,-32 3,-58 -7,-76 z m -50,76 c -3,18 -7,31 -11,40 -5,8 -10,13 -17,13 -12,0 -15,-19 -9,-58 5,-32 14,-49 27,-49 13,0 16,18 10,54 z"
             id="path4273" />
          <path
             style="fill:#46962b;fill-opacity:1;fill-rule:nonzero"
             inkscape:connector-curvature="0"
             class="fil2"
             d="m 1573,842 c -11,-13 -27,-20 -48,-20 -22,0 -41,7 -57,20 -16,14 -26,31 -29,52 -3,18 0,33 8,45 8,12 20,18 35,18 6,0 13,-2 21,-6 -3,3 -5,6 -8,9 -2,3 -4,5 -6,7 l -44,58 h 62 l 26,-35 c 30,-41 47,-74 51,-97 4,-22 0,-39 -11,-53 z m -45,50 c -3,18 -10,26 -21,26 -11,0 -16,-9 -13,-26 3,-18 10,-28 21,-28 11,0 15,9 12,27 z"
             id="path4275" />
          <path
             style="fill:#46962b;fill-opacity:1;fill-rule:nonzero"
             inkscape:connector-curvature="0"
             class="fil2"
             d="m 1263,1027 c 20,0 37,-6 52,-19 15,-13 24,-29 27,-48 2,-11 1,-21 -3,-30 -4,-9 -11,-17 -22,-25 l -8,-6 c -7,-5 -10,-10 -9,-16 1,-3 2,-6 6,-8 3,-2 7,-4 12,-4 6,0 11,2 17,6 5,4 10,10 13,17 l 10,-61 c -13,-7 -26,-10 -40,-10 -16,0 -29,4 -42,13 -4,3 -9,6 -12,10 -4,4 -7,8 -10,13 -6,10 -10,20 -12,29 -1,5 -1,10 -1,15 0,5 2,10 4,14 2,5 5,9 9,13 4,4 8,9 14,13 l 8,7 c 6,5 9,10 8,15 -1,4 -3,7 -6,9 -4,2 -8,4 -13,4 -13,0 -24,-7 -33,-22 l -10,63 c 15,6 29,8 42,8 z"
             id="path4277" />
          <polygon
             style="fill:#46962b;fill-opacity:1;fill-rule:nonzero"
             class="fil2"
             points="1173,822 1139,1027 1197,1027 1231,822 "
             id="polygon4279" />
          <path
             style="fill:#46962b;fill-opacity:1;fill-rule:nonzero"
             inkscape:connector-curvature="0"
             class="fil2"
             d="m 1019,1027 9,-52 c 1,-8 2,-17 3,-28 1,-11 1,-23 1,-38 1,6 2,13 3,20 1,7 3,15 4,23 l 16,75 h 56 l 34,-205 h -56 l -8,46 c -1,9 -3,19 -4,32 -1,13 -2,28 -3,46 l -3,-18 c -1,-7 -2,-13 -3,-19 -1,-5 -2,-10 -3,-15 l -17,-72 h -53 l -34,205 h 56 z"
             id="path4281" />
          <path
             style="fill:#46962b;fill-opacity:1;fill-rule:nonzero"
             inkscape:connector-curvature="0"
             class="fil2"
             d="m 963,925 c 6,-35 0,-61 -18,-80 -14,-15 -35,-22 -63,-22 h -50 l -34,205 h 54 c 30,0 54,-8 72,-24 21,-18 34,-45 40,-79 z m -60,2 c -6,33 -19,50 -40,51 l 17,-104 h 2 c 9,0 15,5 19,14 4,9 4,22 2,39 z"
             id="path4283" />
          <path
             style="fill:#46962b;fill-opacity:1;fill-rule:nonzero"
             inkscape:connector-curvature="0"
             class="fil2"
             d="m 678,1027 9,-52 c 1,-8 2,-17 3,-28 1,-11 1,-23 1,-38 1,6 2,13 3,20 1,7 3,15 4,23 l 16,75 h 56 l 34,-205 h -56 l -8,46 c -1,9 -3,19 -4,32 -1,13 -2,28 -3,46 l -3,-18 c -1,-7 -2,-13 -3,-19 -1,-5 -2,-10 -3,-15 l -17,-72 h -53 l -34,205 h 56 z"
             id="path4285" />
          <path
             style="fill:#46962b;fill-opacity:1;fill-rule:nonzero"
             inkscape:connector-curvature="0"
             class="fil2"
             d="m 445,880 c 3,-17 -1,-31 -12,-42 -10,-11 -28,-16 -53,-16 h -68 l -34,205 h 81 c 19,0 36,-5 50,-16 14,-11 22,-25 25,-42 2,-14 1,-25 -5,-32 -6,-7 -16,-12 -31,-14 27,-2 43,-16 47,-42 z m -90,63 c 8,0 13,2 17,5 4,4 5,8 4,15 -1,6 -4,11 -9,15 -5,4 -11,6 -18,6 -1,0 -1,0 -2,0 -1,0 -2,0 -3,0 l 7,-40 h 5 z m 32,-61 c -1,6 -4,10 -8,13 -5,3 -10,5 -17,5 h -4 l 6,-35 c 1,0 3,0 4,0 1,0 2,0 2,0 14,0 19,6 18,18 z"
             id="path4287" />
          <path
             style="fill:#46962b;fill-opacity:1;fill-rule:nonzero"
             inkscape:connector-curvature="0"
             class="fil2"
             d="m 1152,1234 c -2,9 -4,16 -6,19 -3,3 -7,5 -12,5 -5,0 -9,-2 -11,-6 -2,-4 -2,-10 0,-19 l 22,-132 h -58 l -23,137 c -4,26 1,45 16,57 12,9 28,14 48,14 18,0 33,-4 47,-13 10,-6 18,-14 23,-21 5,-8 9,-17 11,-29 l 24,-145 h -58 l -22,132 z"
             id="path4289" />
          <path
             style="fill:#46962b;fill-opacity:1;fill-rule:nonzero"
             inkscape:connector-curvature="0"
             class="fil2"
             d="m 1153,1048 c -4,-4 -8,-6 -15,-6 -6,0 -12,2 -17,6 -5,4 -8,9 -9,15 -1,6 0,11 4,15 4,4 9,6 15,6 6,0 11,-2 16,-6 5,-4 8,-9 9,-15 1,-6 0,-11 -4,-15 z"
             id="path4291" />
          <path
             style="fill:#46962b;fill-opacity:1;fill-rule:nonzero"
             inkscape:connector-curvature="0"
             class="fil2"
             d="m 1214,1048 c -4,-4 -9,-6 -15,-6 -6,0 -12,2 -17,6 -5,4 -8,9 -9,15 -1,6 0,11 4,15 4,4 9,6 15,6 6,0 12,-2 17,-6 5,-4 8,-9 9,-15 1,-6 0,-11 -4,-15 z"
             id="path4293" />
          <path
             style="fill:#46962b;fill-opacity:1;fill-rule:nonzero"
             inkscape:connector-curvature="0"
             class="fil2"
             d="m 546,954 c -2,9 -4,16 -6,19 -3,3 -7,5 -12,5 -5,0 -9,-2 -11,-6 -2,-4 -2,-10 0,-19 l 22,-132 h -58 l -23,137 c -4,26 1,45 16,57 12,9 28,14 48,14 18,0 33,-4 47,-13 10,-6 18,-13 23,-21 5,-8 9,-17 11,-29 l 24,-145 h -58 l -22,132 z"
             id="path4295" />
          <path
             style="fill:#46962b;fill-opacity:1;fill-rule:nonzero"
             inkscape:connector-curvature="0"
             class="fil2"
             d="m 547,768 c -4,-4 -8,-6 -15,-6 -6,0 -12,2 -17,6 -5,4 -8,9 -9,15 -1,6 0,11 4,15 4,4 9,6 15,6 6,0 11,-2 17,-6 5,-4 8,-9 9,-15 1,-6 0,-11 -4,-15 z"
             id="path4297" />
          <path
             style="fill:#46962b;fill-opacity:1;fill-rule:nonzero"
             inkscape:connector-curvature="0"
             class="fil2"
             d="m 609,769 c -4,-4 -9,-6 -15,-6 -6,0 -12,2 -17,6 -5,4 -8,9 -9,15 -1,6 0,11 4,15 4,4 9,6 15,6 6,0 12,-2 17,-6 5,-4 8,-9 9,-15 1,-6 0,-11 -4,-15 z"
             id="path4299" />
        </g>
      </g>
    </g>
  </g>
</svg>
