<?xml version="1.0" encoding="UTF-8" standalone="no"?>
<svg
   xmlns:dc="http://purl.org/dc/elements/1.1/"
   xmlns:cc="http://creativecommons.org/ns#"
   xmlns:rdf="http://www.w3.org/1999/02/22-rdf-syntax-ns#"
   xmlns:svg="http://www.w3.org/2000/svg"
   xmlns="http://www.w3.org/2000/svg"
   xmlns:sodipodi="http://sodipodi.sourceforge.net/DTD/sodipodi-0.dtd"
   xmlns:inkscape="http://www.inkscape.org/namespaces/inkscape"
   version="1.1"
   id="svg2"
   viewBox="0 0 3000.0001 3000.0001"
   height="3000"
   width="3000"
   sodipodi:docname="logo-theme.svg"
   inkscape:version="0.92.5 (2060ec1f9f, 2020-04-08)"
   inkscape:export-filename="/home/tom/Downloads/chatbegruenungslogo.png"
   inkscape:export-xdpi="25.608215"
   inkscape:export-ydpi="25.608215">
  <sodipodi:namedview
     pagecolor="#ffffff"
     bordercolor="#666666"
     borderopacity="1"
     objecttolerance="10"
     gridtolerance="10"
     guidetolerance="10"
     inkscape:pageopacity="0"
     inkscape:pageshadow="2"
     inkscape:window-width="1680"
     inkscape:window-height="1013"
     id="namedview12"
     showgrid="false"
     inkscape:zoom="0.1952653"
     inkscape:cx="-329.79155"
     inkscape:cy="2080.1766"
     inkscape:window-x="0"
     inkscape:window-y="0"
     inkscape:window-maximized="1"
     inkscape:current-layer="svg2" />
  <defs
     id="defs4">
    <style
       type="text/css"
       id="style4140"><![CDATA[
    .fil0 {fill:#47B5E7;fill-rule:nonzero}
    .fil2 {fill:#FEFEFE;fill-rule:nonzero}
    .fil1 {fill:#FFF225;fill-rule:nonzero}
   ]]></style>
    <style
       type="text/css"
       id="style4229"><![CDATA[
    .fil0 {fill:#FFF225;fill-rule:nonzero}
   ]]></style>
  </defs>
  <metadata
     id="metadata7">
    <rdf:RDF>
      <cc:Work
         rdf:about="">
        <dc:format>image/svg+xml</dc:format>
        <dc:type
           rdf:resource="http://purl.org/dc/dcmitype/StillImage" />
        <dc:title />
      </cc:Work>
    </rdf:RDF>
  </metadata>
  <path
     style="fill:#17a2b8;fill-opacity:1;stroke-width:2.34469295"
     d="m 1424.2064,2044.6279 c -78.3509,-8.1556 -143.2056,-26.2904 -208.7368,-58.3675 -118.3295,-57.9214 -211.2385,-150.8577 -269.53363,-269.6128 -27.30011,-55.6139 -44.49467,-110.8843 -54.34272,-174.6796 -5.86267,-37.978 -5.90507,-126.4709 -0.0786,-164.1284 23.30222,-150.6067 98.70556,-282.3206 214.98575,-375.5355 80.5131,-64.54246 177.3424,-106.56098 283.7078,-123.1133 37.8738,-5.89382 126.2547,-5.89382 164.1286,0 125.3615,19.50845 235.6251,73.61304 325.6349,159.7838 76.7771,73.5026 137.1125,179.1236 162.0992,283.7646 12.3736,51.819 15.1354,76.9286 15.0874,137.1646 -0.049,60.2486 -2.8896,86.0819 -15.0874,137.1644 -24.9867,104.6411 -85.3221,210.2621 -162.0992,283.7646 -89.342,85.5315 -200.4384,140.3056 -323.2903,159.3922 -23.6684,3.6773 -111.4262,6.594 -132.4751,4.4029 z m 119.1507,-62.9164 c 43.7686,-6.144 101.2504,-20.9546 101.2504,-26.0879 0,-3.6028 -161.6305,-446.3982 -162.9561,-446.4272 -1.1334,-0.025 -157.1815,452.0581 -157.1233,455.1979 0.037,1.9798 44.9481,12.6929 68.0233,16.2261 47.3607,7.2517 103.9993,7.6616 150.8057,1.0911 z m -301.6701,-49.9384 c -0.5953,-0.9671 -56.1183,-152.5483 -123.3846,-336.847 -67.2662,-184.2988 -123.60319,-338.277 -125.19309,-342.1738 -2.8881,-7.0777 -2.9,-7.0617 -11.6017,15.6724 -24.52268,64.0679 -35.10571,121.2201 -35.23951,190.3067 -0.1697,87.6534 17.08947,160.9863 56.2731,239.0997 25.4275,50.6904 54.5032,90.4329 97.9372,133.8668 39.9769,39.9769 76.4328,67.5477 119.6684,90.5023 22.6245,12.0118 23.1984,12.2669 21.5402,9.5729 z m 526.7967,-36.4108 c 40.0528,-26.8339 88.3232,-72.1621 119.1538,-111.891 43.7543,-56.3828 77.3587,-124.5844 94.5799,-191.9541 29.6487,-115.9861 18.9799,-241.6689 -29.5048,-347.5793 -15.7405,-34.3835 -15.1229,-34.9974 -15.2313,15.1411 -0.1317,60.9852 -8.4769,106.9148 -30.4125,167.3826 -6.2714,17.2874 -119.532,343.3924 -164.147,472.6186 l -5.5099,15.9595 8.6981,-5.2577 c 4.7839,-2.8917 14.8521,-9.3805 22.3737,-14.4197 z m -352.5446,-569.106 c -22.315,-61.2552 -40.8847,-111.7711 -41.2661,-112.2578 -0.3813,-0.4867 -14.1875,-2.1421 -30.6803,-3.6787 -16.4928,-1.5365 -32.2161,-3.9996 -34.9409,-5.4734 -6.4729,-3.5012 -11.22,-15.2331 -9.2844,-22.9452 0.8433,-3.36 4.229,-8.8049 7.524,-12.0997 5.8718,-5.8719 6.4627,-5.9607 29.7994,-4.4758 108.5883,6.9095 133.7006,7.0391 228.4983,1.1801 44.5382,-2.7528 51.6892,-1.6395 56.4397,8.7866 3.3406,7.3319 3.3866,16.2461 0.1153,22.3584 -4.0018,7.4777 -15.5216,10.8555 -43.2376,12.6783 -14.1581,0.9312 -27.4403,2.3368 -29.5159,3.1236 -3.1904,1.2095 10.7641,44.6197 90.2821,280.8512 51.7306,153.6812 94.5942,279.9591 95.2524,280.6173 1.408,1.4079 66.845,-214.1342 79.8439,-262.9963 10.4364,-39.2303 14.8517,-71.7634 12.726,-93.7684 -5.3398,-55.2767 -17.7371,-88.0815 -59.3986,-157.1766 -21.243,-35.2314 -32.5071,-63.4163 -34.6776,-86.7694 -4.7775,-51.4038 30.8633,-97.7094 79.0848,-102.7496 l 14.4965,-1.5151 -7.9597,-6.7578 c -90.534,-76.86206 -191.1113,-118.83186 -308.0804,-128.55836 -61.2329,-5.0918 -131.7092,2.7697 -192.187,21.4381 -85.2821,26.3249 -154.443,68.16366 -218.2702,132.04176 -27.3522,27.3742 -66.6878,75.2418 -66.6878,81.1528 0,3.7856 57.4995,2.3726 157.467,-3.8696 24.7056,-1.5428 25.0614,-1.4911 31.0671,4.5147 8.0077,8.0077 8.3742,22.144 0.7998,30.8445 -4.4943,5.1625 -8.2268,6.3944 -25.2054,8.3193 -10.9614,1.2428 -24.6778,2.2837 -30.4809,2.3133 -5.8032,0.029 -12.0258,0.9873 -13.828,2.1285 -2.6526,1.6795 14.5004,54.939 90.0384,279.5686 51.3233,152.6217 94.338,280.1317 95.5884,283.3556 1.9279,4.9712 11.0072,-20.3198 59.7619,-166.4731 l 57.4885,-172.3349 z"
     id="path3956"
     inkscape:connector-curvature="0" />
  <g
     transform="matrix(9.9287397,0,0,9.9287397,0,-7448.6305)"
     id="layer1">
    <g
       transform="matrix(0.04221784,0,0,0.04221785,0.04221784,750.25128)"
       id="g4240"
       style="clip-rule:evenodd;fill-rule:evenodd;image-rendering:optimizeQuality;shape-rendering:geometricPrecision;text-rendering:geometricPrecision">
      <g
         id="Layer_x0020_1-4">
        <metadata
           id="CorelCorpID_0Corel-Layer-0" />
        <path
           style="fill:#fff225;fill-rule:nonzero"
           class="fil0"
           d="m 7105,3126 c -3,-18 -49,-35 -81,-61 -106,-88 -485,-461 -1230,-437 -94,3 -180,12 -259,25 159,-51 241,-82 289,-101 58,-23 438,-153 643,-822 17,-57 67,-195 55,-205 -15,-13 -143,10 -272,89 -130,79 -565,148 -617,156 -30,5 -158,-14 -350,86 215,-221 444,-536 505,-977 29,-212 17,-298 8,-297 -13,1 -20,1 -36,6 -48,14 -97,55 -255,161 -159,106 -327,223 -327,223 0,0 58,-576 40,-590 -18,-13 -345,-10 -847,550 0,0 57,-479 -37,-660 0,0 -26,-131 -47,-199 -10,-34 -37,-70 -41,-67 -5,4 -50,11 -121,93 -111,127 -626,282 -711,949 C 3349,779 3212,419 2874,237 2696,63 2610,2 2591,-1 h -3 c 0,0 0,0 0,0 -9,4 -5,87 -34,275 -33,210 -62,276 -62,276 0,0 -354,-312 -363,-321 -17,-16 -233,668 -169,1009 0,0 -112,-87 -316,-192 -232,-119 -621,-140 -619,-121 5,31 329,664 465,887 0,0 -873,-150 -858,-95 5,18 26,52 60,198 0,0 -343,-7 -338,21 5,32 260,453 279,476 0,0 -265,51 -321,54 -38,2 177,596 767,744 89,22 175,39 257,51 -193,-4 -407,37 -653,128 0,0 -142,55 -217,115 -74,59 -441,121 -467,175 v 4 c 23,48 456,345 456,345 0,0 -263,128 -281,152 -12,17 -22,32 -19,36 3,5 21,26 66,54 105,65 1040,163 1098,140 57,-23 -508,613 -517,933 0,0 93,7 145,11 40,3 -170,401 -132,399 254,-11 675,-256 754,-313 79,-56 187,-140 216,-168 29,-27 -184,354 -97,690 0,0 28,260 29,313 1,52 75,53 75,88 -1,43 206,-163 304,-242 98,-79 231,-232 295,-333 64,-101 7,789 -19,960 -8,55 4,61 13,80 3,6 94,-70 123,-89 43,-29 489,-628 517,-778 0,0 238,1045 318,1157 12,16 22,34 32,38 h 7 c 2,-1 4,-3 6,-6 24,-37 59,-135 86,-143 34,-10 135,-23 188,-172 53,-149 148,-294 193,-681 0,0 506,645 571,705 26,24 163,-205 224,-572 61,-367 -70,-860 -152,-877 0,0 -34,-54 61,-20 55,20 265,385 750,662 82,47 255,47 256,44 39,-109 -342,-1105 -342,-1105 0,0 9,-11 86,20 76,31 804,502 1245,281 89,-45 95,-54 95,-54 51,-217 -338,-628 -577,-814 0,0 627,-25 723,-192 0,0 116,-42 175,-124 10,-14 -67,-157 -158,-220 -237,-164 -288,-226 -288,-226 0,0 66,-80 162,-110 96,-30 404,-220 322,-314 0,0 93,-81 96,-107 v -2 0 z m -2027,-12 c -97,16 -346,22 -116,218 0,0 42,3 -71,70 -113,67 252,106 295,155 43,49 -362,-4 -354,117 8,122 -70,45 199,332 0,0 -162,-38 -180,-15 -19,23 354,332 352,420 0,0 -76,53 -108,7 -32,-46 -258,-296 -294,-303 -28,-5 -80,7 -105,56 0,0 99,230 68,236 -31,6 -185,-102 -185,-102 0,0 -101,44 -68,136 33,92 308,403 292,422 0,0 -23,51 -59,48 -35,-4 -225,-348 -272,-361 -47,-13 55,321 55,321 0,0 -171,-181 -217,-218 -46,-38 -52,40 -52,40 l 50,382 c 0,0 -534,-796 -403,153 0,0 -12,54 -30,52 -18,-2 -131,-314 -118,-400 13,-86 -94,237 -94,237 0,0 -167,-665 -514,17 0,0 -24,-258 -78,-302 -53,-44 -97,-68 -111,-60 -13,8 -136,125 -184,137 -48,11 38,-154 -33,-201 0,0 6,-46 -35,-112 -41,-66 -81,-42 -320,216 0,0 100,-244 99,-329 -1,-84 -94,-104 -94,-104 0,0 -174,132 -224,116 -51,-16 83,-178 86,-223 1,-14 -19,-9 -19,-9 0,0 -21,-15 -196,87 l -283,180 c -21,-13 -49,-10 -40,-78 2,-19 529,-267 506,-293 -23,-26 -199,-69 -199,-69 0,0 110,-133 77,-148 -33,-14 -273,-34 -273,-34 0,0 -42,-66 -33,-53 8,13 235,-36 235,-36 l -152,-119 c 0,0 383,-67 45,-271 -125,-75 -256,-127 -397,-152 361,18 600,-73 559,-206 0,0 -11,-48 -371,-179 0,0 10,-43 34,-49 24,-6 398,131 372,109 -27,-22 -164,-174 -139,-173 25,1 200,75 259,21 56,-52 91,-148 128,-169 37,-21 -98,-145 80,-88 0,0 120,-67 25,-178 -95,-111 -395,-466 95,-37 117,103 410,-210 386,-380 0,0 117,118 142,131 25,13 189,32 226,-25 17,-26 -60,-268 -10,-375 0,0 21,-2 41,21 20,23 22,275 111,323 0,0 100,-59 117,-102 17,-44 -27,273 272,136 0,0 146,-130 188,-133 42,-4 -31,154 5,210 37,56 160,94 199,24 39,-70 226,-211 241,-205 15,6 -95,298 -108,327 -18,42 -31,104 -31,104 0,0 14,82 116,104 0,0 193,-113 393,-259 -21,25 -42,52 -64,80 0,0 -259,267 -260,305 0,39 89,125 162,76 73,-49 248,-121 264,-109 15,13 43,49 7,70 -37,21 -241,128 -241,128 0,0 233,16 519,-42 -309,125 -416,316 -413,334 9,61 489,-63 502,-33 69,156 -152,60 -249,76 z"
           id="path4233"
           inkscape:connector-curvature="0" />
      </g>
    </g>
  </g>
</svg>
