<?xml version="1.0" encoding="UTF-8"?>
<svg id="Ebene_1" xmlns="http://www.w3.org/2000/svg" version="1.1" viewBox="0 0 158.314819 158.283447">
  <!-- Generator: Adobe Illustrator 30.1.0, SVG Export Plug-In . SVG Version: 2.1.1 Build 136)  -->
  <defs>
    <style>
      .st0 {
        fill: #008939;
      }
    </style>
  </defs>
  <path class="st0" d="M138.348511,19.934326c-26.580078-26.579102-69.82666-26.579102-96.406738,0-12.875488,12.875977-19.966309,29.994629-19.966309,48.203613,0,14.831116,4.706238,28.9375,13.40863,40.618713L2.928589,141.212158c-3.904785,3.905273-3.904785,10.237305,0,14.142578,1.952637,1.952637,4.512207,2.928711,7.071289,2.928711s5.118652-.976074,7.071289-2.928711l32.465454-32.465454c12.009949,8.919312,26.307251,13.386353,40.608765,13.386353,17.456543,0,34.913574-6.64502,48.203125-19.934082,12.875488-12.875977,19.966309-29.994629,19.966309-48.203613s-7.09082-35.327637-19.966309-48.203613ZM124.205933,102.198975c-18.779602,18.78009-49.33667,18.781067-68.118591.003296-.001038-.001038-.001953-.002258-.002991-.003296-.001099-.001099-.00238-.002075-.003479-.003174-9.094666-9.097351-14.105408-21.193604-14.105408-34.057861,0-12.866699,5.010742-24.962891,14.108398-34.061035,18.781738-18.78125,49.341309-18.78125,68.12207,0,9.098145,9.098145,14.108887,21.194336,14.108887,34.061035s-5.010742,24.962891-14.108887,34.061035Z"/>
</svg>