<?xml version="1.0" encoding="UTF-8" standalone="no"?>
<!DOCTYPE svg PUBLIC "-//W3C//DTD SVG 1.1//EN" "http://www.w3.org/Graphics/SVG/1.1/DTD/svg11.dtd">
<svg width="100%" height="100%" viewBox="0 0 100 100" version="1.1" xmlns="http://www.w3.org/2000/svg" xmlns:xlink="http://www.w3.org/1999/xlink" xml:space="preserve" xmlns:serif="http://www.serif.com/" style="fill-rule:evenodd;clip-rule:evenodd;stroke-linejoin:round;stroke-miterlimit:2;">
    <g transform="matrix(0.190807,0,0,0.189465,1.19866,1.03782)">
        <path d="M511.578,226.064C511.373,224.733 508.017,223.535 505.775,221.681C498.142,215.317 470.873,188.482 417.203,190.22C410.41,190.436 404.214,191.079 398.576,192.037C410.007,188.332 415.923,186.11 419.369,184.742C423.527,183.087 450.918,173.699 465.658,125.581C466.916,121.475 470.473,111.555 469.582,110.802C468.494,109.877 459.281,111.526 449.97,117.187C440.632,122.867 409.257,127.82 405.533,128.415C403.343,128.766 394.13,127.382 380.369,134.61C395.877,118.684 412.33,96.05 416.752,64.263C418.861,49.021 417.968,42.81 417.312,42.85C416.396,42.916 415.875,42.925 414.742,43.259C411.285,44.285 407.785,47.196 396.373,54.833C384.951,62.465 372.851,70.921 372.851,70.921C372.851,70.921 376.996,29.422 375.707,28.453C374.443,27.516 350.88,27.738 314.712,68.017C314.712,68.017 318.822,33.517 312.037,20.502C312.037,20.502 310.158,11.084 308.682,6.163C307.943,3.7 306.014,1.098 305.696,1.321C305.317,1.581 302.118,2.114 296.979,8.007C289,17.144 251.917,28.329 245.778,76.31C241.132,56.947 231.27,31.055 206.932,17.937C193.189,4.481 187.074,0.462 186.369,0.81C185.75,1.122 186.018,7.107 183.929,20.581C181.581,35.685 179.476,40.464 179.476,40.464C179.476,40.464 153.973,18.033 153.31,17.374C152.112,16.194 136.563,65.443 141.125,90.033C141.125,90.033 133.052,83.774 118.366,76.235C101.687,67.666 73.629,66.184 73.827,67.505C74.162,69.727 97.502,115.33 107.328,131.347C107.328,131.347 44.445,120.541 45.542,124.474C45.906,125.767 47.41,128.237 49.893,138.733C49.893,138.733 25.213,138.194 25.535,140.239C25.888,142.523 44.244,172.86 45.654,174.514C45.654,174.514 26.561,178.205 22.529,178.424C19.798,178.577 35.284,221.334 77.733,232.011C84.149,233.624 90.356,234.823 96.272,235.65C82.356,235.385 66.965,238.288 49.281,244.844C49.281,244.844 39.037,248.83 33.627,253.117C28.208,257.423 1.266,261.953 -0.059,265.877C0.568,268.765 32.851,290.851 32.851,290.851C32.851,290.851 13.941,300.089 12.641,301.824C11.75,303.033 11.029,304.111 11.266,304.449C11.488,304.775 12.765,306.285 16.039,308.326C23.602,313.021 90.918,320.054 95.065,318.392C99.203,316.747 58.496,362.496 57.869,385.546C57.869,385.546 64.534,386.027 68.301,386.337C71.188,386.568 56.029,415.173 58.775,415.056C77.066,414.287 107.407,396.589 113.099,392.513C118.787,388.456 126.567,382.418 128.647,380.453C130.752,378.484 115.375,405.964 121.668,430.136C121.668,430.136 123.667,448.892 123.776,452.685C123.872,456.456 129.207,456.472 129.157,458.994C129.106,462.084 143.984,447.247 151.036,441.537C158.085,435.841 167.665,424.834 172.3,417.564C176.927,410.322 172.804,474.384 170.919,486.703C170.308,490.693 171.215,491.107 171.849,492.429C172.038,492.837 178.62,487.418 180.706,486.029C183.812,483.964 215.917,440.788 217.942,429.988C217.942,429.988 235.062,505.212 240.87,513.268C242.127,515.009 243.177,516.961 244.048,515.604C245.753,512.922 248.308,505.89 250.235,505.31C252.708,504.568 259.94,503.656 263.739,492.935C267.547,482.21 274.391,471.734 277.602,443.888C277.602,443.888 314.002,490.296 318.732,494.617C320.609,496.335 330.502,479.882 334.851,453.456C339.222,427.015 329.832,391.5 323.9,390.283C323.9,390.283 321.423,386.382 328.32,388.849C332.246,390.267 347.398,416.552 382.333,436.519C388.211,439.875 400.714,439.935 400.787,439.712C403.597,431.867 376.177,360.13 376.177,360.13C376.177,360.13 376.859,359.308 382.382,361.568C387.889,363.834 440.246,397.691 472.005,381.82C478.447,378.609 478.818,377.931 478.818,377.931C482.457,362.288 454.484,332.72 437.306,319.293C437.306,319.293 482.418,317.459 489.337,305.497C489.337,305.497 497.656,302.502 501.947,296.572C502.693,295.535 497.089,285.238 490.583,280.72C473.546,268.91 469.857,264.456 469.857,264.456C469.857,264.456 474.615,258.705 481.496,256.542C488.375,254.384 510.619,240.675 504.673,233.915C504.673,233.915 511.832,227.691 511.578,226.064ZM365.601,225.175C358.632,226.32 340.722,226.727 357.216,240.859C357.216,240.859 360.266,241.084 352.123,245.884C343.978,250.693 370.269,253.55 373.377,257.027C376.488,260.537 347.322,256.705 347.891,265.482C348.453,274.273 342.882,268.724 362.252,289.408C362.252,289.408 350.615,286.706 349.263,288.339C347.891,289.997 374.746,312.25 374.576,318.581C374.576,318.581 369.115,322.371 366.785,319.062C364.461,315.73 348.23,297.781 345.603,297.257C343.623,296.871 339.832,297.781 338.078,301.265C338.078,301.265 345.171,317.796 342.955,318.252C340.722,318.709 329.632,310.906 329.632,310.906C329.632,310.906 322.355,314.109 324.752,320.699C327.119,327.298 346.898,349.724 345.769,351.097C345.769,351.097 344.087,354.783 341.533,354.525C338.99,354.251 325.304,329.494 321.932,328.544C318.557,327.597 325.861,351.677 325.861,351.677C325.861,351.677 313.521,338.681 310.23,335.966C306.951,333.244 306.462,338.843 306.462,338.843L310.037,366.32C310.037,366.32 271.584,308.996 280.991,377.351C280.991,377.351 280.102,381.222 278.833,381.097C277.553,380.96 269.381,358.47 270.317,352.328C271.274,346.168 263.579,369.372 263.579,369.372C263.579,369.372 251.521,321.474 226.55,370.562C226.55,370.562 224.808,352.019 220.963,348.837C217.141,345.66 213.954,343.949 212.989,344.531C212.042,345.115 203.204,353.525 199.751,354.359C196.308,355.177 202.502,343.24 197.392,339.912C197.392,339.912 197.849,336.591 194.879,331.816C191.897,327.037 189.026,328.824 171.819,347.369C171.819,347.369 179.012,329.775 178.946,323.701C178.897,317.634 172.198,316.238 172.198,316.238C172.198,316.238 159.675,325.757 156.044,324.584C152.391,323.406 162.038,311.75 162.208,308.527C162.261,307.511 160.82,307.902 160.82,307.902C160.82,307.902 159.319,306.826 146.739,314.162L126.34,327.138C124.841,326.226 122.838,326.396 123.45,321.556C123.623,320.16 161.542,302.331 159.849,300.46C158.167,298.605 145.494,295.502 145.494,295.502C145.494,295.502 153.438,285.919 151.067,284.863C148.7,283.831 131.389,282.398 131.389,282.398C131.389,282.398 128.397,277.642 129.014,278.581C129.586,279.531 145.944,275.992 145.944,275.992L135.03,267.418C135.03,267.418 162.632,262.568 138.269,247.9C129.251,242.48 119.841,238.767 109.67,236.93C135.655,238.214 152.842,231.642 149.926,222.127C149.926,222.127 149.099,218.674 123.194,209.212C123.194,209.212 123.916,206.122 125.643,205.705C127.379,205.287 154.313,215.147 152.411,213.564C150.49,211.975 140.629,201.012 142.407,201.112C144.188,201.191 156.834,206.54 161.03,202.607C165.048,198.848 167.573,191.922 170.213,190.418C172.86,188.911 163.171,179.949 175.938,184.075C175.938,184.075 184.59,179.217 177.772,171.275C170.956,163.307 149.345,137.752 184.602,168.607C193.032,175.992 214.126,153.489 212.39,141.247C212.39,141.247 220.819,149.744 222.605,150.651C224.389,151.569 236.189,152.973 238.872,148.885C240.106,147.001 234.541,129.582 238.119,121.916C238.119,121.916 239.623,121.782 241.038,123.409C242.458,125.049 242.62,143.222 249.024,146.674C249.024,146.674 256.213,142.461 257.427,139.317C258.653,136.167 255.475,158.955 277.045,149.123C277.045,149.123 287.543,139.797 290.557,139.517C293.551,139.237 288.303,150.595 290.952,154.632C293.62,158.686 302.458,161.394 305.264,156.327C308.087,151.274 321.541,141.164 322.589,141.57C323.636,141.991 315.744,163.046 314.836,165.112C313.521,168.123 312.593,172.58 312.593,172.58C312.593,172.58 313.623,178.46 320.972,180.08C320.972,180.08 334.851,171.973 349.291,161.449C347.777,163.27 346.25,165.162 344.708,167.184C344.708,167.184 326.025,186.374 326.021,189.151C326.046,191.926 332.427,198.162 337.662,194.635C342.898,191.129 355.539,185.892 356.644,186.8C357.732,187.702 359.746,190.299 357.119,191.819C354.482,193.322 339.779,201.012 339.779,201.012C339.779,201.012 356.574,202.161 377.117,198.007C354.88,207.03 347.173,220.764 347.371,222.065C348.027,226.475 382.587,217.517 383.535,219.699C388.492,230.953 372.587,223.999 365.601,225.175Z" style="fill:rgb(253,215,0);fill-rule:nonzero;"/>
    </g>
</svg>
