<?xml version="1.0" encoding="utf-8"?>
<!-- Generator: Adobe Illustrator 27.8.0, SVG Export Plug-In . SVG Version: 6.00 Build 0)  -->
<svg version="1.1" id="Ebene_1" xmlns="http://www.w3.org/2000/svg" xmlns:xlink="http://www.w3.org/1999/xlink" x="0px" y="0px"
	 viewBox="0 0 512 516" style="enable-background:new 0 0 512 516;" xml:space="preserve">
<style type="text/css">
	.st0{clip-path:url(#SVGID_00000079487114637934906190000016317832401741926299_);fill:#FFF17A;}
</style>
<g>
	<g>
		<defs>
			<rect id="SVGID_1_" x="0.1" y="0.7" width="511.6" height="515.2"/>
		</defs>
		<clipPath id="SVGID_00000004505061412722412230000014134042368637865888_">
			<use xlink:href="#SVGID_1_"  style="overflow:visible;"/>
		</clipPath>
		<path style="clip-path:url(#SVGID_00000004505061412722412230000014134042368637865888_);fill:#FFF17A;" d="M365.7,225.1
			c-7,1.1-24.9,1.6-8.4,15.7c0,0,3,0.2-5.1,5c-8.1,4.8,18.1,7.7,21.2,11.1c3.1,3.5-26.1-0.3-25.5,8.5c0.6,8.8-5,3.2,14.4,23.9
			c0,0-11.6-2.7-13-1.1c-1.4,1.7,25.5,23.9,25.3,30.2c0,0-5.5,3.8-7.8,0.5c-2.3-3.3-18.5-21.3-21.2-21.8c-2-0.4-5.8,0.5-7.5,4
			c0,0,7.1,16.5,4.9,17c-2.2,0.5-13.3-7.4-13.3-7.4s-7.3,3.2-4.9,9.8c2.4,6.6,22.1,29,21,30.4c0,0-1.7,3.7-4.2,3.4
			c-2.5-0.3-16.2-25-19.6-26c-3.4-1,3.9,23.1,3.9,23.1s-12.3-13-15.6-15.7c-3.3-2.7-3.8,2.9-3.8,2.9l3.6,27.5c0,0-38.5-57.3-29,11
			c0,0-0.9,3.9-2.2,3.8c-1.3-0.1-9.5-22.6-8.5-28.8c1-6.2-6.7,17-6.7,17s-12.1-47.9-37,1.2c0,0-1.7-18.5-5.6-21.7
			c-3.8-3.2-7-4.9-8-4.3c-0.9,0.6-9.8,9-13.2,9.8c-3.4,0.8,2.8-11.1-2.4-14.5c0,0,0.5-3.3-2.5-8.1c-3-4.8-5.9-3-23.1,15.5
			c0,0,7.2-17.6,7.1-23.7c-0.1-6.1-6.8-7.5-6.8-7.5s-12.5,9.5-16.1,8.4c-3.6-1.2,6-12.8,6.2-16.1c0.1-1-1.4-0.6-1.4-0.6
			s-1.5-1.1-14.1,6.3l-20.4,13c-1.5-0.9-3.5-0.7-2.9-5.6c0.2-1.4,38.1-19.2,36.4-21.1c-1.7-1.9-14.4-5-14.4-5s7.9-9.6,5.6-10.6
			c-2.4-1-19.7-2.5-19.7-2.5s-3-4.8-2.4-3.8c0.6,1,16.9-2.6,16.9-2.6l-10.9-8.6c0,0,27.6-4.9,3.2-19.5c-9-5.4-18.4-9.1-28.6-11
			c26,1.3,43.2-5.3,40.3-14.8c0,0-0.8-3.4-26.7-12.9c0,0,0.7-3.1,2.4-3.5c1.7-0.4,28.7,9.4,26.8,7.9c-1.9-1.6-11.8-12.6-10-12.4
			c1.8,0.1,14.4,5.4,18.6,1.5c4-3.8,6.5-10.7,9.2-12.2c2.6-1.5-7-10.5,5.7-6.3c0,0,8.6-4.9,1.8-12.8c-6.8-8-28.4-33.5,6.8-2.7
			c8.4,7.4,29.5-15.1,27.8-27.4c0,0,8.4,8.5,10.2,9.4c1.8,0.9,13.6,2.3,16.3-1.8c1.2-1.9-4.3-19.3-0.8-27c0,0,1.5-0.1,2.9,1.5
			c1.4,1.6,1.6,19.8,8,23.3c0,0,7.2-4.2,8.4-7.4c1.2-3.1-1.9,19.6,19.6,9.8c0,0,10.5-9.3,13.5-9.6c3-0.3-2.2,11.1,0.4,15.1
			c2.7,4.1,11.5,6.8,14.3,1.7c2.8-5.1,16.3-15.2,17.3-14.8c1,0.4-6.9,21.5-7.8,23.5c-1.3,3-2.2,7.5-2.2,7.5s1,5.9,8.4,7.5
			c0,0,13.9-8.1,28.3-18.6c-1.5,1.8-3,3.7-4.6,5.7c0,0-18.7,19.2-18.7,22c0,2.8,6.4,9,11.6,5.5c5.2-3.5,17.9-8.7,19-7.8
			c1.1,0.9,3.1,3.5,0.5,5c-2.6,1.5-17.3,9.2-17.3,9.2s16.8,1.1,37.3-3c-22.2,9-29.9,22.8-29.8,24.1c0.7,4.4,35.2-4.6,36.2-2.4
			C388.5,230.9,372.6,223.9,365.7,225.1 M511.6,226c-0.2-1.3-3.6-2.5-5.8-4.4c-7.6-6.4-34.9-33.2-88.6-31.5
			c-6.8,0.2-13,0.9-18.6,1.8c11.4-3.7,17.4-5.9,20.8-7.3c4.2-1.7,31.5-11,46.3-59.2c1.3-4.1,4.8-14,3.9-14.8
			c-1.1-0.9-10.3,0.7-19.6,6.4c-9.3,5.7-40.7,10.6-44.4,11.2c-2.2,0.4-11.4-1-25.2,6.2c15.5-15.9,32-38.6,36.4-70.3
			c2.1-15.2,1.2-21.5,0.6-21.4c-0.9,0.1-1.4,0.1-2.6,0.4c-3.5,1-7,3.9-18.4,11.6c-11.4,7.6-23.5,16.1-23.5,16.1s4.1-41.5,2.9-42.5
			c-1.3-0.9-24.8-0.7-61,39.6c0,0,4.1-34.5-2.7-47.5c0,0-1.9-9.4-3.4-14.3c-0.7-2.5-2.7-5.1-3-4.8c-0.4,0.3-3.6,0.8-8.7,6.7
			c-8,9.1-45.1,20.3-51.2,68.3C241.2,56.9,231.3,31,207,17.9C193.2,4.4,187.1,0.4,186.4,0.8c-0.6,0.3-0.4,6.3-2.4,19.8
			c-2.4,15.1-4.4,19.9-4.4,19.9S154,18,153.4,17.3c-1.2-1.2-16.8,48.1-12.2,72.7c0,0-8.1-6.3-22.8-13.8
			c-16.7-8.6-44.7-10.1-44.5-8.7c0.3,2.2,23.7,47.8,33.5,63.8c0,0-62.9-10.8-61.8-6.9c0.4,1.3,1.9,3.8,4.3,14.3
			c0,0-24.7-0.5-24.4,1.5c0.4,2.3,18.7,32.6,20.1,34.3c0,0-19.1,3.7-23.1,3.9c-2.7,0.1,12.8,42.9,55.2,53.6
			c6.4,1.6,12.6,2.8,18.5,3.6c-13.9-0.3-29.3,2.6-47,9.2c0,0-10.2,4-15.6,8.3c-5.4,4.3-32.4,8.8-33.7,12.8c0.6,2.9,32.9,25,32.9,25
			s-18.9,9.2-20.2,11c-0.9,1.2-1.6,2.3-1.4,2.6c0.2,0.3,1.5,1.8,4.8,3.9c7.6,4.7,74.9,11.7,79,10.1c4.1-1.6-36.6,44.1-37.2,67.1
			c0,0,6.7,0.5,10.4,0.8c2.9,0.2-12.3,28.8-9.5,28.7c18.3-0.8,48.6-18.5,54.3-22.5c5.7-4.1,13.5-10.1,15.5-12.1
			c2.1-2-13.3,25.5-7,49.7c0,0,2,18.8,2.1,22.5c0.1,3.8,5.4,3.8,5.4,6.3c-0.1,3.1,14.8-11.8,21.9-17.5c7.1-5.7,16.6-16.7,21.3-24
			c4.6-7.2,0.5,56.8-1.4,69.1c-0.6,4,0.3,4.4,0.9,5.7c0.2,0.4,6.8-5,8.9-6.4c3.1-2.1,35.2-45.2,37.2-56c0,0,17.1,75.2,22.9,83.3
			c1.3,1.7,2.3,3.7,3.2,2.3c1.7-2.7,4.3-9.7,6.2-10.3c2.5-0.7,9.7-1.6,13.5-12.4c3.8-10.7,10.6-21.2,13.9-49
			c0,0,36.4,46.4,41.1,50.7c1.9,1.7,11.8-14.7,16.1-41.2c4.4-26.4-5-62-11-63.2c0,0-2.5-3.9,4.4-1.4c3.9,1.4,19.1,27.7,54,47.7
			c5.9,3.4,18.4,3.4,18.5,3.2c2.8-7.9-24.6-79.6-24.6-79.6s0.7-0.8,6.2,1.4c5.5,2.3,57.9,36.1,89.6,20.2c6.4-3.2,6.8-3.9,6.8-3.9
			c3.6-15.6-24.3-45.2-41.5-58.6c0,0,45.1-1.8,52-13.8c0,0,8.3-3,12.6-8.9c0.8-1-4.9-11.3-11.4-15.9c-17-11.8-20.7-16.3-20.7-16.3
			s4.8-5.8,11.6-7.9s29.1-15.9,23.2-22.6C504.7,233.9,511.9,227.6,511.6,226"/>
	</g>
</g>
</svg>
